# xmcd
#
# Track frame offsets:
#	180
#	17515
#	37805
#	58164
#	76202
#	99086
#	119888
#	142650
#	164207
#
# Disc length: 2681 seconds
#
# Revision: 1
# Processed by: cddbd v1.4PL0 Copyright (c) Steve Scherf et al.
# Submitted via: EasyCDDAExtractor 5.1.0
#
DISCID=6c0a7709
DTITLE=Beat Daddys - Live
DYEAR=1900
DGENRE=Blues
TTITLE0=Hoosier Lottery
TTITLE1=Different Names
TTITLE2=Bad News
TTITLE3=Mississippi
TTITLE4=Reasons
TTITLE5=Train In The Distance
TTITLE6=Livin' This Love
TTITLE7=Rainin' In The Real World
TTITLE8=Ruby's Blues
EXTD=
EXTT0=
EXTT1=
EXTT2=
EXTT3=
EXTT4=
EXTT5=
EXTT6=
EXTT7=
EXTT8=
PLAYORDER=
